<svg width="393" height="35" viewBox="0 0 393 35" fill="none" xmlns="http://www.w3.org/2000/svg">
<path d="M35.736 0.639997V34H30.264V11.152L20.088 34H16.296L6.072 11.152V34H0.6V0.639997H6.504L18.216 26.8L29.88 0.639997H35.736ZM41.1041 17.248C41.1041 13.984 41.8561 11.056 43.3601 8.464C44.8961 5.872 46.9601 3.856 49.5521 2.416C52.1761 0.943997 55.0401 0.207997 58.1441 0.207997C61.6961 0.207997 64.8481 1.088 67.6001 2.848C70.3841 4.576 72.4001 7.04 73.6481 10.24H67.0721C66.2081 8.48 65.0081 7.168 63.4721 6.304C61.9361 5.44 60.1601 5.008 58.1441 5.008C55.9361 5.008 53.9681 5.504 52.2401 6.496C50.5121 7.488 49.1521 8.912 48.1601 10.768C47.2001 12.624 46.7201 14.784 46.7201 17.248C46.7201 19.712 47.2001 21.872 48.1601 23.728C49.1521 25.584 50.5121 27.024 52.2401 28.048C53.9681 29.04 55.9361 29.536 58.1441 29.536C60.1601 29.536 61.9361 29.104 63.4721 28.24C65.0081 27.376 66.2081 26.064 67.0721 24.304H73.6481C72.4001 27.504 70.3841 29.968 67.6001 31.696C64.8481 33.424 61.6961 34.288 58.1441 34.288C55.0081 34.288 52.1441 33.568 49.5521 32.128C46.9601 30.656 44.8961 28.624 43.3601 26.032C41.8561 23.44 41.1041 20.512 41.1041 17.248ZM100.357 14.32V18.928H80.6291V14.32H100.357ZM106.307 17.248C106.307 13.984 107.059 11.056 108.563 8.464C110.099 5.872 112.163 3.856 114.755 2.416C117.379 0.943997 120.243 0.207997 123.347 0.207997C126.899 0.207997 130.051 1.088 132.803 2.848C135.587 4.576 137.603 7.04 138.851 10.24H132.275C131.411 8.48 130.211 7.168 128.675 6.304C127.139 5.44 125.363 5.008 123.347 5.008C121.139 5.008 119.171 5.504 117.443 6.496C115.715 7.488 114.355 8.912 113.363 10.768C112.403 12.624 111.923 14.784 111.923 17.248C111.923 19.712 112.403 21.872 113.363 23.728C114.355 25.584 115.715 27.024 117.443 28.048C119.171 29.04 121.139 29.536 123.347 29.536C125.363 29.536 127.139 29.104 128.675 28.24C130.211 27.376 131.411 26.064 132.275 24.304H138.851C137.603 27.504 135.587 29.968 132.803 31.696C130.051 33.424 126.899 34.288 123.347 34.288C120.211 34.288 117.347 33.568 114.755 32.128C112.163 30.656 110.099 28.624 108.563 26.032C107.059 23.44 106.307 20.512 106.307 17.248ZM156.728 34.432C154.232 34.432 151.976 33.872 149.96 32.752C147.944 31.6 146.36 30 145.208 27.952C144.056 25.872 143.48 23.472 143.48 20.752C143.48 18.064 144.072 15.68 145.256 13.6C146.44 11.52 148.056 9.92 150.104 8.8C152.152 7.68 154.44 7.12 156.968 7.12C159.496 7.12 161.784 7.68 163.832 8.8C165.88 9.92 167.496 11.52 168.68 13.6C169.864 15.68 170.456 18.064 170.456 20.752C170.456 23.44 169.848 25.824 168.632 27.904C167.416 29.984 165.752 31.6 163.64 32.752C161.56 33.872 159.256 34.432 156.728 34.432ZM156.728 29.68C158.136 29.68 159.448 29.344 160.664 28.672C161.912 28 162.92 26.992 163.688 25.648C164.456 24.304 164.84 22.672 164.84 20.752C164.84 18.832 164.472 17.216 163.736 15.904C163 14.56 162.024 13.552 160.808 12.88C159.592 12.208 158.28 11.872 156.872 11.872C155.464 11.872 154.152 12.208 152.936 12.88C151.752 13.552 150.808 14.56 150.104 15.904C149.4 17.216 149.048 18.832 149.048 20.752C149.048 23.6 149.768 25.808 151.208 27.376C152.68 28.912 154.52 29.68 156.728 29.68ZM189.21 7.12C191.29 7.12 193.146 7.552 194.778 8.416C196.442 9.28 197.738 10.56 198.666 12.256C199.594 13.952 200.058 16 200.058 18.4V34H194.634V19.216C194.634 16.848 194.042 15.04 192.858 13.792C191.674 12.512 190.058 11.872 188.01 11.872C185.962 11.872 184.33 12.512 183.114 13.792C181.93 15.04 181.338 16.848 181.338 19.216V34H175.866V7.552H181.338V10.576C182.234 9.488 183.37 8.64 184.746 8.032C186.154 7.424 187.642 7.12 189.21 7.12ZM216.638 34.432C214.558 34.432 212.686 34.064 211.022 33.328C209.39 32.56 208.094 31.536 207.134 30.256C206.174 28.944 205.662 27.488 205.598 25.888H211.262C211.358 27.008 211.886 27.952 212.846 28.72C213.838 29.456 215.07 29.824 216.542 29.824C218.078 29.824 219.262 29.536 220.094 28.96C220.958 28.352 221.39 27.584 221.39 26.656C221.39 25.664 220.91 24.928 219.95 24.448C219.022 23.968 217.534 23.44 215.486 22.864C213.502 22.32 211.886 21.792 210.638 21.28C209.39 20.768 208.302 19.984 207.374 18.928C206.478 17.872 206.03 16.48 206.03 14.752C206.03 13.344 206.446 12.064 207.278 10.912C208.11 9.728 209.294 8.8 210.83 8.128C212.398 7.456 214.19 7.12 216.206 7.12C219.214 7.12 221.63 7.888 223.454 9.424C225.31 10.928 226.302 12.992 226.43 15.616H220.958C220.862 14.432 220.382 13.488 219.518 12.784C218.654 12.08 217.486 11.728 216.014 11.728C214.574 11.728 213.47 12 212.702 12.544C211.934 13.088 211.55 13.808 211.55 14.704C211.55 15.408 211.806 16 212.318 16.48C212.83 16.96 213.454 17.344 214.19 17.632C214.926 17.888 216.014 18.224 217.454 18.64C219.374 19.152 220.942 19.68 222.158 20.224C223.406 20.736 224.478 21.504 225.374 22.528C226.27 23.552 226.734 24.912 226.766 26.608C226.766 28.112 226.35 29.456 225.518 30.64C224.686 31.824 223.502 32.752 221.966 33.424C220.462 34.096 218.686 34.432 216.638 34.432ZM239.062 12.016V26.656C239.062 27.648 239.286 28.368 239.734 28.816C240.214 29.232 241.014 29.44 242.134 29.44H245.494V34H241.174C238.71 34 236.822 33.424 235.51 32.272C234.198 31.12 233.542 29.248 233.542 26.656V12.016H230.422V7.552H233.542V0.975999H239.062V7.552H245.494V12.016H239.062ZM256.01 11.392C256.81 10.048 257.866 9.008 259.178 8.272C260.522 7.504 262.106 7.12 263.93 7.12V12.784H262.538C260.394 12.784 258.762 13.328 257.642 14.416C256.554 15.504 256.01 17.392 256.01 20.08V34H250.538V7.552H256.01V11.392ZM292.911 7.552V34H287.439V30.88C286.575 31.968 285.439 32.832 284.031 33.472C282.655 34.08 281.183 34.384 279.615 34.384C277.535 34.384 275.663 33.952 273.999 33.088C272.367 32.224 271.071 30.944 270.111 29.248C269.183 27.552 268.719 25.504 268.719 23.104V7.552H274.143V22.288C274.143 24.656 274.735 26.48 275.919 27.76C277.103 29.008 278.719 29.632 280.767 29.632C282.815 29.632 284.431 29.008 285.615 27.76C286.831 26.48 287.439 24.656 287.439 22.288V7.552H292.911ZM306.515 12.016V26.656C306.515 27.648 306.739 28.368 307.187 28.816C307.667 29.232 308.467 29.44 309.587 29.44H312.947V34H308.627C306.163 34 304.275 33.424 302.963 32.272C301.651 31.12 300.995 29.248 300.995 26.656V12.016H297.875V7.552H300.995V0.975999H306.515V7.552H312.947V12.016H306.515ZM329.463 34.432C326.967 34.432 324.711 33.872 322.695 32.752C320.679 31.6 319.095 30 317.943 27.952C316.791 25.872 316.215 23.472 316.215 20.752C316.215 18.064 316.807 15.68 317.991 13.6C319.175 11.52 320.791 9.92 322.839 8.8C324.887 7.68 327.175 7.12 329.703 7.12C332.231 7.12 334.519 7.68 336.567 8.8C338.615 9.92 340.231 11.52 341.415 13.6C342.599 15.68 343.191 18.064 343.191 20.752C343.191 23.44 342.583 25.824 341.367 27.904C340.151 29.984 338.487 31.6 336.375 32.752C334.295 33.872 331.991 34.432 329.463 34.432ZM329.463 29.68C330.871 29.68 332.183 29.344 333.399 28.672C334.647 28 335.655 26.992 336.423 25.648C337.191 24.304 337.575 22.672 337.575 20.752C337.575 18.832 337.207 17.216 336.471 15.904C335.735 14.56 334.759 13.552 333.543 12.88C332.327 12.208 331.015 11.872 329.607 11.872C328.199 11.872 326.887 12.208 325.671 12.88C324.487 13.552 323.543 14.56 322.839 15.904C322.135 17.216 321.783 18.832 321.783 20.752C321.783 23.6 322.503 25.808 323.943 27.376C325.415 28.912 327.255 29.68 329.463 29.68ZM354.072 11.392C354.872 10.048 355.928 9.008 357.24 8.272C358.584 7.504 360.168 7.12 361.992 7.12V12.784H360.6C358.456 12.784 356.824 13.328 355.704 14.416C354.616 15.504 354.072 17.392 354.072 20.08V34H348.6V7.552H354.072V11.392ZM365.198 20.656C365.198 18 365.742 15.648 366.83 13.6C367.95 11.552 369.454 9.968 371.342 8.848C373.262 7.696 375.374 7.12 377.678 7.12C379.758 7.12 381.566 7.536 383.102 8.368C384.67 9.168 385.918 10.176 386.846 11.392V7.552H392.366V34H386.846V30.064C385.918 31.312 384.654 32.352 383.054 33.184C381.454 34.016 379.63 34.432 377.582 34.432C375.31 34.432 373.23 33.856 371.342 32.704C369.454 31.52 367.95 29.888 366.83 27.808C365.742 25.696 365.198 23.312 365.198 20.656ZM386.846 20.752C386.846 18.928 386.462 17.344 385.694 16C384.958 14.656 383.982 13.632 382.766 12.928C381.55 12.224 380.238 11.872 378.83 11.872C377.422 11.872 376.11 12.224 374.894 12.928C373.678 13.6 372.686 14.608 371.918 15.952C371.182 17.264 370.814 18.832 370.814 20.656C370.814 22.48 371.182 24.08 371.918 25.456C372.686 26.832 373.678 27.888 374.894 28.624C376.142 29.328 377.454 29.68 378.83 29.68C380.238 29.68 381.55 29.328 382.766 28.624C383.982 27.92 384.958 26.896 385.694 25.552C386.462 24.176 386.846 22.576 386.846 20.752Z" fill="#EBEBEB"/>
</svg>
